<svg width="22" height="12" viewBox="0 0 22 12" fill="none" xmlns="http://www.w3.org/2000/svg">
<path id="Vector" d="M10.1337 11.5206C10.2302 11.6247 10.3594 11.7098 10.51 11.7685C10.6607 11.8273 10.8284 11.858 10.9986 11.858C11.1688 11.858 11.3364 11.8273 11.4871 11.7685C11.6377 11.7098 11.7669 11.6247 11.8634 11.5206L21.3327 1.36733C21.4423 1.25022 21.5065 1.11305 21.5185 0.970732C21.5305 0.828409 21.4897 0.686375 21.4005 0.560061C21.3114 0.433747 21.1773 0.327984 21.0129 0.254263C20.8484 0.180542 20.6599 0.141683 20.4678 0.141908H1.52932C1.33767 0.142495 1.14985 0.181854 0.98608 0.255752C0.822307 0.329649 0.688769 0.435289 0.599828 0.561311C0.510886 0.687333 0.469906 0.828969 0.481294 0.970987C0.492683 1.113 0.556008 1.25003 0.664462 1.36733L10.1337 11.5206Z" fill="white"/>
</svg>
