<svg width="60" height="60" viewBox="0 0 60 60" fill="none" xmlns="http://www.w3.org/2000/svg">
<g id="rain icon">
<path id="Vector" d="M13.4309 19.084C13.8225 19.0232 14.1851 18.8404 14.4668 18.5616C14.7485 18.2828 14.9351 17.9223 15 17.5313C16.4168 8.92617 22.691 3.75 30 3.75C36.7887 3.75 41.3227 8.17383 43.1484 12.8602C43.2658 13.1605 43.4593 13.4251 43.71 13.628C43.9607 13.8308 44.2599 13.9648 44.5781 14.0168C50.4375 14.9719 55.3125 18.8848 55.3125 25.6875C55.3125 32.6484 49.6172 37.5 42.6562 37.5H15.2344C9.43359 37.5 4.6875 34.6055 4.6875 28.2188C4.6875 22.5387 9.21914 19.7555 13.4309 19.084V19.084Z" stroke="white" stroke-width="4" stroke-linejoin="round"/>
<path id="Vector_2" d="M16.875 45L13.125 50.625M26.25 45L18.75 56.25M35.625 45L31.875 50.625M45 45L37.5 56.25" stroke="white" stroke-width="4" stroke-linecap="round" stroke-linejoin="round"/>
</g>
</svg>
