<svg width="60" height="60" viewBox="0 0 60 60" fill="none" xmlns="http://www.w3.org/2000/svg">
<path id="snow icon" d="M30.0102 60C29.4415 60 28.8961 59.8025 28.494 59.4508C28.0918 59.0992 27.8659 58.6223 27.8659 58.125V53.2762L25.0956 55.7025C24.693 56.0541 24.1471 56.2514 23.5781 56.251C23.0091 56.2507 22.4636 56.0527 22.0615 55.7006C21.6594 55.3486 21.4338 54.8712 21.4342 54.3737C21.4346 53.8761 21.661 53.3991 22.0636 53.0475L27.8659 47.9738V33.2475L13.2851 40.6088L11.1581 47.5462C11.0102 48.0266 10.6502 48.436 10.1572 48.6842C9.66416 48.9325 9.07857 48.9993 8.52922 48.87C7.97987 48.7407 7.51176 48.4259 7.22786 47.9948C6.94396 47.5637 6.86753 47.0516 7.01539 46.5712L8.03176 43.2637L3.22867 45.6862C2.73644 45.931 2.1535 45.9955 1.60706 45.8658C1.06062 45.7361 0.59504 45.4226 0.311922 44.9938C0.0288045 44.565 -0.0488652 44.0557 0.0958623 43.577C0.24059 43.0983 0.595965 42.6892 1.08444 42.4388L5.88752 40.0162L2.09651 39.1275C1.8245 39.0635 1.56958 38.9532 1.34629 38.8031C1.123 38.6529 0.935722 38.4657 0.79515 38.2523C0.654578 38.0388 0.563463 37.8032 0.527008 37.559C0.490553 37.3147 0.509472 37.0666 0.582684 36.8288C0.655897 36.5909 0.781968 36.368 0.953702 36.1727C1.12544 35.9775 1.33947 35.8137 1.58358 35.6908C1.82769 35.5679 2.09709 35.4882 2.37642 35.4563C2.65574 35.4244 2.93951 35.441 3.21152 35.505L11.1366 37.3613L25.7217 30L11.1409 22.6388L3.20723 24.495C2.66145 24.6139 2.08408 24.5406 1.59957 24.2908C1.11505 24.041 0.762197 23.6347 0.617059 23.1595C0.471921 22.6843 0.546123 22.1782 0.82367 21.7505C1.10122 21.3227 1.55988 21.0073 2.1008 20.8725L5.88752 19.9837L1.08444 17.5613C0.838609 17.439 0.622855 17.2755 0.449598 17.0801C0.27634 16.8846 0.149 16.6612 0.0749082 16.4225C0.000816787 16.1839 -0.0185624 15.9348 0.0178866 15.6896C0.0543356 15.4444 0.145893 15.2079 0.287287 14.9938C0.428681 14.7796 0.617119 14.592 0.841752 14.4418C1.06639 14.2916 1.32278 14.1818 1.59617 14.1186C1.86955 14.0554 2.15454 14.0401 2.43471 14.0736C2.71489 14.1071 2.98472 14.1887 3.22867 14.3137L8.03176 16.7362L7.01539 13.425C6.93736 13.1857 6.9146 12.9351 6.94843 12.688C6.98227 12.4409 7.07202 12.2022 7.21245 11.9857C7.35289 11.7693 7.5412 11.5794 7.76641 11.4273C7.99161 11.2751 8.24921 11.1637 8.52417 11.0994C8.79914 11.0352 9.08598 11.0195 9.36796 11.0532C9.64994 11.0869 9.92142 11.1694 10.1666 11.2958C10.4117 11.4222 10.6257 11.59 10.7959 11.7895C10.9661 11.9889 11.0892 12.216 11.1581 12.4575L13.2808 19.3913L27.8659 26.7525V12.0263L22.0636 6.9525C21.8643 6.77842 21.7061 6.5717 21.5981 6.34416C21.4901 6.11661 21.4344 5.87269 21.4342 5.62633C21.434 5.37996 21.4893 5.13597 21.5969 4.90829C21.7045 4.68062 21.8624 4.4737 22.0615 4.29937C22.2606 4.12505 22.497 3.98671 22.7572 3.89227C23.0174 3.79783 23.2964 3.74913 23.5781 3.74896C23.8598 3.74878 24.1389 3.79714 24.3992 3.89125C24.6596 3.98537 24.8962 4.12342 25.0956 4.2975L27.8659 6.72375V1.875C27.8659 1.37772 28.0918 0.900806 28.494 0.549175C28.8961 0.197544 29.4415 0 30.0102 0C30.5789 0 31.1243 0.197544 31.5264 0.549175C31.9285 0.900806 32.1544 1.37772 32.1544 1.875V6.72375L34.929 4.2975C35.3317 3.94592 35.8775 3.74861 36.4465 3.74896C37.0155 3.74931 37.5611 3.9473 37.9631 4.29937C38.3652 4.65145 38.5909 5.12877 38.5904 5.62633C38.59 6.12388 38.3636 6.60092 37.961 6.9525L32.1544 12.0263V26.7525L46.7352 19.3913L48.8623 12.4538C49.0101 11.9734 49.3702 11.564 49.8632 11.3158C50.3562 11.0675 50.9418 11.0007 51.4911 11.13C52.0405 11.2593 52.5086 11.5741 52.7925 12.0052C53.0764 12.4363 53.1528 12.9484 53.005 13.4288L51.9929 16.7362L56.796 14.3137C57.2882 14.069 57.8711 14.0045 58.4176 14.1342C58.964 14.2639 59.4296 14.5774 59.7127 15.0062C59.9958 15.435 60.0735 15.9443 59.9288 16.423C59.784 16.9017 59.4287 17.3108 58.9402 17.5613L54.1371 19.9837L57.9238 20.8725C58.4732 21.0018 58.9413 21.3166 59.2252 21.7477C59.5091 22.1788 59.5855 22.6909 59.4377 23.1712C59.2898 23.6516 58.9298 24.061 58.4368 24.3092C57.9438 24.5575 57.3582 24.6243 56.8088 24.495L48.8837 22.6388L34.2986 30L48.8794 37.3613L56.8088 35.505C57.3582 35.3762 57.9435 35.4435 58.4361 35.6921C58.9287 35.9407 59.2882 36.3503 59.4355 36.8306C59.5828 37.311 59.5058 37.8229 59.2215 38.2536C58.9372 38.6844 58.4689 38.9987 57.9195 39.1275L54.1328 40.0162L58.9359 42.4388C59.4244 42.6892 59.7798 43.0983 59.9245 43.577C60.0692 44.0557 59.9915 44.565 59.7084 44.9938C59.4253 45.4226 58.9597 45.7361 58.4133 45.8658C57.8668 45.9955 57.2839 45.931 56.7917 45.6862L51.9886 43.2637L53.0007 46.575C53.0787 46.8143 53.1015 47.0649 53.0676 47.312C53.0338 47.5591 52.944 47.7978 52.8036 48.0143C52.6632 48.2307 52.4749 48.4206 52.2496 48.5727C52.0244 48.7249 51.7668 48.8363 51.4919 48.9006C51.2169 48.9648 50.9301 48.9805 50.6481 48.9468C50.3661 48.9131 50.0946 48.8306 49.8495 48.7042C49.6043 48.5778 49.3904 48.41 49.2202 48.2105C49.0499 48.0111 48.9268 47.784 48.858 47.5425L46.7352 40.6088L32.1544 33.2475V47.9738L37.9567 53.0475C38.3593 53.3991 38.5858 53.8761 38.5862 54.3737C38.5866 54.8712 38.3609 55.3486 37.9589 55.7006C37.5568 56.0527 37.0112 56.2507 36.4422 56.251C35.8732 56.2514 35.3274 56.0541 34.9248 55.7025L32.1501 53.2762V58.125C32.1501 58.6223 31.9242 59.0992 31.5221 59.4508C31.12 59.8025 30.5746 60 30.0059 60H30.0102Z" fill="white"/>
</svg>
