<svg width="53" height="53" viewBox="0 0 53 53" fill="none" xmlns="http://www.w3.org/2000/svg">
<path id="Vector" d="M52.5033 25.3107C52.4897 22.5066 51.5143 19.7921 49.7401 17.6206C47.9659 15.4491 45.5002 13.9523 42.7551 13.3801C41.9562 9.59591 39.8808 6.20138 36.8768 3.76539C33.8727 1.3294 30.1227 0 26.2551 0C22.3876 0 18.6375 1.3294 15.6335 3.76539C12.6295 6.20138 10.5541 9.59591 9.75513 13.3801C7.00931 13.9515 4.54282 15.4481 2.76785 17.6196C0.992877 19.7911 0.0169801 22.5061 0.00325207 25.3107C0.00415833 28.329 1.133 31.238 3.16825 33.4669C1.6308 35.051 0.594849 37.0534 0.190145 39.2235C-0.21456 41.3935 0.029967 43.6347 0.893103 45.6665C1.75624 47.6982 3.19962 49.4301 5.04248 50.6454C6.88535 51.8606 9.04579 52.5051 11.2533 52.4982H31.8783C33.6974 52.5058 35.4911 52.0704 37.1043 51.2295C38.7174 50.3886 40.1016 49.1676 41.1373 47.672C42.1729 46.1764 42.8287 44.4511 43.0482 42.6452C43.2677 40.8393 43.0442 39.0071 42.397 37.3069C45.2231 36.8153 47.7854 35.3433 49.6337 33.1496C51.4821 30.956 52.4981 28.1811 52.5033 25.3126V25.3107ZM31.8783 48.7482H11.2533C9.37506 48.7513 7.56431 48.0484 6.18015 46.7789C4.796 45.5093 3.93957 43.7659 3.78075 41.8944C3.62192 40.023 4.1723 38.1602 5.32271 36.6755C6.47312 35.1909 8.13952 34.1929 9.99138 33.8794L11.2345 33.6694L11.5083 32.4394C12.0171 30.1509 13.2911 28.1042 15.1199 26.6373C16.9488 25.1704 19.2232 24.371 21.5676 24.371C23.9121 24.371 26.1865 25.1704 28.0153 26.6373C29.8442 28.1042 31.1182 30.1509 31.627 32.4394L31.8989 33.6694L33.142 33.8813C34.9916 34.1972 36.6552 35.1962 37.8033 36.6804C38.9515 38.1646 39.5004 40.0258 39.3415 41.8954C39.1825 43.7651 38.3273 45.507 36.9452 46.7761C35.563 48.0452 33.7547 48.749 31.8783 48.7482V48.7482ZM40.3158 33.7482H40.2126C38.8103 32.1786 36.993 31.0372 34.9701 30.4557C34.0727 27.6034 32.2889 25.1116 29.8781 23.3428C27.4672 21.5739 24.555 20.6201 21.5648 20.6201C18.5746 20.6201 15.6624 21.5739 13.2516 23.3428C10.8407 25.1116 9.0569 27.6034 8.1595 30.4557C7.49292 30.6497 6.84577 30.9052 6.22638 31.2188C5.4449 30.4458 4.82407 29.5258 4.39962 28.5118C3.97517 27.4978 3.7555 26.4099 3.75325 25.3107C3.7629 23.1922 4.56615 21.1543 6.00454 19.5989C7.44292 18.0435 9.41198 17.0837 11.5233 16.9088L13.0533 16.7888L13.2389 15.2663C13.6303 12.0901 15.1696 9.16662 17.5669 7.0466C19.9642 4.92657 23.054 3.75634 26.2542 3.75634C29.4544 3.75634 32.5442 4.92657 34.9415 7.0466C37.3388 9.16662 38.8781 12.0901 39.2695 15.2663L39.4551 16.7888L40.9833 16.9088C43.1601 17.0745 45.1879 18.0782 46.6399 19.7085C48.0919 21.3389 48.8549 23.4689 48.7684 25.6503C48.6819 27.8318 47.7527 29.8947 46.1762 31.405C44.5998 32.9153 42.4989 33.7553 40.3158 33.7482V33.7482Z" fill="white"/>
</svg>
