<svg width="60" height="60" viewBox="0 0 60 60" fill="none" xmlns="http://www.w3.org/2000/svg">
<path id="wind icon" d="M0 49.0754C0 49.6594 0.199704 50.146 0.599112 50.5353C0.976331 50.9489 1.42012 51.1436 1.95266 51.1436H15C15.5769 51.1436 16.0651 51.3625 16.5089 51.8248C16.7188 52.0372 16.8863 52.2949 17.0009 52.5817C17.1154 52.8686 17.1746 53.1783 17.1746 53.4915C17.1746 53.8046 17.1154 54.1144 17.0009 54.4012C16.8863 54.6881 16.7188 54.9458 16.5089 55.1581C16.0651 55.6204 15.5769 55.8637 15 55.8637C14.4231 55.8637 13.9349 55.6204 13.4911 55.1338C13.1244 54.757 12.6402 54.5481 12.1376 54.5499C11.605 54.5499 11.1612 54.7445 10.8062 55.1338C10.4512 55.5231 10.2737 56.0097 10.2737 56.5937C10.2737 57.1776 10.4512 57.6642 10.8062 58.0535C11.9822 59.3431 13.3802 60 15 60C16.642 60 18.0399 59.3674 19.1716 58.1022C20.3033 56.837 20.9024 55.3041 20.9024 53.5036C20.9024 51.7032 20.3254 50.1703 19.1716 48.9051C18.0177 47.6399 16.6198 47.0073 15 47.0073H1.95266C1.69793 47.0029 1.44497 47.0544 1.20869 47.1589C0.972406 47.2633 0.757596 47.4186 0.576923 47.6156C0.199704 48.0292 0 48.5158 0 49.0754V49.0754ZM0 41.7518C0 42.3114 0.199704 42.7737 0.599112 43.163C0.954142 43.5523 1.42012 43.747 1.95266 43.747H26.2944C27.9364 43.747 29.3343 43.1144 30.4882 41.8491C31.642 40.5839 32.2189 39.0511 32.2189 37.2506C32.2189 35.4501 31.642 33.9416 30.4882 32.6764C29.3343 31.4355 27.9364 30.8029 26.2944 30.8029C24.608 30.8029 23.2322 31.4112 22.1228 32.6521C21.7677 33.0414 21.6124 33.5523 21.6124 34.1363C21.6124 34.7202 21.7899 35.2068 22.1228 35.5961C22.4556 35.9611 22.8994 36.1557 23.4541 36.1557C23.9867 36.1557 24.4305 35.9611 24.8299 35.5961C25.2515 35.1338 25.7396 34.9148 26.3388 34.9148C26.9379 34.9148 27.426 35.1338 27.8476 35.5961C28.2692 36.0584 28.4911 36.618 28.4911 37.2506C28.4911 37.9075 28.2692 38.4672 27.8476 38.9294C27.426 39.3917 26.9157 39.635 26.3388 39.635H1.95266C1.69654 39.6351 1.443 39.6911 1.20681 39.7997C0.970621 39.9083 0.756501 40.0674 0.576923 40.2676C0.199704 40.7056 0 41.1922 0 41.7518V41.7518ZM12.8476 25.8394C12.8476 25.2555 13.0473 24.7689 13.4246 24.3309C13.824 23.9416 14.2678 23.747 14.7559 23.747H19.2604C19.7707 23.747 20.1923 23.9416 20.5473 24.3552C20.9024 24.7689 21.0577 25.2555 21.0577 25.8394C21.0577 26.4234 20.8802 26.91 20.5473 27.2993C20.1923 27.7129 19.7707 27.9075 19.2604 27.9075H14.7559C14.2234 27.9075 13.7796 27.7129 13.4024 27.2993C13.2236 27.1106 13.0821 26.8836 12.9867 26.6325C12.8913 26.3814 12.8439 26.1114 12.8476 25.8394V25.8394ZM19.1716 9.00243C19.1716 8.44282 19.3491 7.9562 19.682 7.51825C20.0761 7.14303 20.5801 6.93577 21.1021 6.93431C21.5902 6.93431 22.034 7.12895 22.4112 7.51825L25.5843 11.0949C25.9393 11.4599 26.1169 11.9465 26.1169 12.5304C26.1169 13.1144 25.9393 13.601 25.5843 13.9903C25.2293 14.3796 24.7855 14.5742 24.2751 14.5742C23.7426 14.5742 23.2988 14.3796 22.966 13.9903L19.7041 10.5109C19.5285 10.3108 19.391 10.0744 19.2996 9.8154C19.2081 9.55641 19.1646 9.28005 19.1716 9.00243V9.00243ZM24.8521 25.5474V25.3771C24.8964 23.163 25.4512 21.1192 26.4941 19.2214C27.534 17.3707 28.9844 15.8388 30.7101 14.7689C32.4467 13.6838 34.414 13.1214 36.4127 13.1387C37.966 13.1387 39.4527 13.4793 40.895 14.1606C42.3151 14.8418 43.5577 15.7421 44.5784 16.8856C45.6213 18.0292 46.4423 19.3674 47.0414 20.9246C47.6405 22.4817 47.9512 24.1363 47.9512 25.8394C47.9512 28.1265 47.4408 30.219 46.4201 32.1654C45.3994 34.1119 44.0015 35.6448 42.2485 36.764C40.5015 37.8967 38.5088 38.4933 36.4793 38.4915H36.0133C35.858 38.4915 35.7249 38.4428 35.6361 38.3212C35.5841 38.2639 35.5434 38.1954 35.5167 38.12C35.4899 38.0446 35.4777 37.964 35.4808 37.8832V34.9148C35.4808 34.5985 35.6361 34.4282 35.9689 34.4282H36.5015C38.6317 34.4039 40.4734 33.5766 41.9822 31.8735C43.4911 30.1946 44.2678 28.1752 44.2678 25.8151C44.2678 23.4793 43.4911 21.4842 41.9601 19.8054C40.429 18.1508 38.5873 17.3236 36.4127 17.3236C34.3269 17.3236 32.5074 18.1022 30.9985 19.708C29.4896 21.2895 28.6908 23.2117 28.6021 25.4745C28.6021 25.6204 28.5355 25.7421 28.4246 25.8881C28.3136 26.0341 28.1139 26.1071 27.8476 26.1071H25.3402C25.0074 26.1314 24.8521 25.9367 24.8521 25.5474V25.5474ZM34.5044 49.5864V44.7445C34.5044 44.1606 34.682 43.674 35.0592 43.2847C35.4364 42.8954 35.8802 42.7007 36.3905 42.7007C36.6387 42.691 36.8861 42.7371 37.1174 42.836C37.3488 42.935 37.5593 43.0848 37.7359 43.2762C37.9126 43.4676 38.0516 43.6966 38.1446 43.9491C38.2376 44.2016 38.2825 44.4723 38.2766 44.7445V49.5864C38.2766 50.1703 38.0991 50.6813 37.7219 51.0949C37.3447 51.5085 36.9009 51.7032 36.3905 51.7032C35.858 51.7032 35.4142 51.5085 35.0592 51.0949C34.7017 50.6908 34.5026 50.1493 34.5044 49.5864V49.5864ZM34.5044 7.05596V2.06813C34.5044 1.50852 34.682 1.0219 35.0592 0.608272C35.4364 0.194647 35.8802 0 36.3905 0C36.9231 0 37.3669 0.194647 37.7219 0.608272C38.0769 1.0219 38.2766 1.50852 38.2766 2.06813V7.03163C38.2766 7.59124 38.0991 8.05353 37.7219 8.44282C37.3447 8.80779 36.9009 9.00243 36.3905 9.00243C35.858 9.00243 35.4142 8.80779 35.0592 8.44282C34.8822 8.26807 34.7412 8.05402 34.6456 7.81489C34.55 7.57577 34.5018 7.31706 34.5044 7.05596V7.05596ZM46.7751 39.1241C46.7751 38.5645 46.9527 38.1022 47.2855 37.7616C47.4474 37.5744 47.6442 37.4275 47.8624 37.3309C48.0806 37.2344 48.3152 37.1904 48.5503 37.2019C49.0828 37.2019 49.5266 37.3966 49.8817 37.7616L53.0991 41.2165C53.4541 41.6302 53.6317 42.1411 53.6317 42.7007C53.6317 43.2603 53.4541 43.747 53.0991 44.1363C52.2115 44.8905 51.324 44.8905 50.4364 44.1363L47.2855 40.6569C46.9305 40.2676 46.7751 39.7324 46.7751 39.1241V39.1241ZM46.7751 12.5304C46.7751 11.9221 46.9527 11.4355 47.2855 11.0949L50.4364 7.51825C50.8358 7.12895 51.2574 6.93431 51.7456 6.93431C52.2559 6.93431 52.6997 7.12895 53.0769 7.54258C53.4541 7.9562 53.6317 8.44282 53.6317 9.00243C53.6317 9.61071 53.4541 10.1217 53.0991 10.5109L49.8817 13.9903C49.4822 14.3796 49.0385 14.5742 48.5503 14.5742C48.0399 14.5742 47.6405 14.3796 47.2855 13.9903C47.1137 13.7983 46.9797 13.5697 46.8919 13.3185C46.8041 13.0674 46.7644 12.7991 46.7751 12.5304V12.5304ZM51.7899 25.8394C51.7899 25.2555 51.9675 24.7689 52.3225 24.3309C52.6775 23.9416 53.0991 23.747 53.5873 23.747H58.0695C58.5799 23.747 59.0237 23.9659 59.4231 24.3796C59.8225 24.7932 60 25.2798 60 25.8394C60 26.399 59.8003 26.8856 59.4231 27.2993C59.0237 27.7129 58.5799 27.9075 58.0695 27.9075H53.5873C53.0769 27.9075 52.6553 27.7129 52.3003 27.2993C52.1285 27.1073 51.9945 26.8787 51.9067 26.6275C51.8189 26.3764 51.7792 26.1081 51.7899 25.8394V25.8394Z" fill="white"/>
</svg>
